<?xml version="1.0" encoding="UTF-8" standalone="no"?>
<!DOCTYPE svg PUBLIC "-//W3C//DTD SVG 1.1//EN"
 "http://www.w3.org/Graphics/SVG/1.1/DTD/svg11.dtd">
<!-- Generated by graphviz version 12.0.0 (20240803.0821)
 -->
<!-- Title: snakemake_dag Pages: 1 -->
<svg width="187pt" height="404pt"
 viewBox="0.00 0.00 186.66 404.00" xmlns="http://www.w3.org/2000/svg" xmlns:xlink="http://www.w3.org/1999/xlink">
<g id="graph0" class="graph" transform="scale(1 1) rotate(0) translate(4 400)">
<title>snakemake_dag</title>
<polygon fill="white" stroke="none" points="-4,4 -4,-400 182.66,-400 182.66,4 -4,4"/>
<!-- 0 -->
<g id="node1" class="node">
<title>0</title>
<path fill="none" stroke="#56d8d8" stroke-width="2" d="M116.53,-36C116.53,-36 66.03,-36 66.03,-36 60.03,-36 54.03,-30 54.03,-24 54.03,-24 54.03,-12 54.03,-12 54.03,-6 60.03,0 66.03,0 66.03,0 116.53,0 116.53,0 122.53,0 128.53,-6 128.53,-12 128.53,-12 128.53,-24 128.53,-24 128.53,-30 122.53,-36 116.53,-36"/>
<text text-anchor="middle" x="91.28" y="-14.88" font-family="sans" font-size="10.00">eat_cookies</text>
</g>
<!-- 1 -->
<g id="node2" class="node">
<title>1</title>
<path fill="none" stroke="#d89556" stroke-width="2" d="M120.28,-108C120.28,-108 62.28,-108 62.28,-108 56.28,-108 50.28,-102 50.28,-96 50.28,-96 50.28,-84 50.28,-84 50.28,-78 56.28,-72 62.28,-72 62.28,-72 120.28,-72 120.28,-72 126.28,-72 132.28,-78 132.28,-84 132.28,-84 132.28,-96 132.28,-96 132.28,-102 126.28,-108 120.28,-108"/>
<text text-anchor="middle" x="91.28" y="-86.88" font-family="sans" font-size="10.00">bake_cookies</text>
</g>
<!-- 1&#45;&gt;0 -->
<g id="edge1" class="edge">
<title>1&#45;&gt;0</title>
<path fill="none" stroke="grey" stroke-width="2" d="M91.28,-71.34C91.28,-64.75 91.28,-57.08 91.28,-49.67"/>
<polygon fill="grey" stroke="grey" stroke-width="2" points="94.78,-49.93 91.28,-39.93 87.78,-49.93 94.78,-49.93"/>
</g>
<!-- 2 -->
<g id="node3" class="node">
<title>2</title>
<path fill="none" stroke="#d85656" stroke-width="2" d="M87.28,-180C87.28,-180 23.28,-180 23.28,-180 17.28,-180 11.28,-174 11.28,-168 11.28,-168 11.28,-156 11.28,-156 11.28,-150 17.28,-144 23.28,-144 23.28,-144 87.28,-144 87.28,-144 93.28,-144 99.28,-150 99.28,-156 99.28,-156 99.28,-168 99.28,-168 99.28,-174 93.28,-180 87.28,-180"/>
<text text-anchor="middle" x="55.28" y="-158.88" font-family="sans" font-size="10.00">shape_cookies</text>
</g>
<!-- 2&#45;&gt;1 -->
<g id="edge2" class="edge">
<title>2&#45;&gt;1</title>
<path fill="none" stroke="grey" stroke-width="2" d="M64.37,-143.34C67.96,-136.34 72.2,-128.12 76.23,-120.28"/>
<polygon fill="grey" stroke="grey" stroke-width="2" points="79.23,-122.09 80.69,-111.59 73.01,-118.89 79.23,-122.09"/>
</g>
<!-- 3 -->
<g id="node4" class="node">
<title>3</title>
<path fill="none" stroke="#59d856" stroke-width="2" d="M68.28,-324C68.28,-324 22.28,-324 22.28,-324 16.28,-324 10.28,-318 10.28,-312 10.28,-312 10.28,-300 10.28,-300 10.28,-294 16.28,-288 22.28,-288 22.28,-288 68.28,-288 68.28,-288 74.28,-288 80.28,-294 80.28,-300 80.28,-300 80.28,-312 80.28,-312 80.28,-318 74.28,-324 68.28,-324"/>
<text text-anchor="middle" x="45.28" y="-302.88" font-family="sans" font-size="10.00">mix_dough</text>
</g>
<!-- 3&#45;&gt;2 -->
<g id="edge4" class="edge">
<title>3&#45;&gt;2</title>
<path fill="none" stroke="grey" stroke-width="2" d="M26.69,-287.2C18.09,-277.68 8.8,-265.21 4.28,-252 -0.89,-236.86 -1.7,-230.84 4.28,-216 8.18,-206.34 14.77,-197.46 21.94,-189.83"/>
<polygon fill="grey" stroke="grey" stroke-width="2" points="24.25,-192.46 29,-182.99 19.38,-187.44 24.25,-192.46"/>
</g>
<!-- 5 -->
<g id="node6" class="node">
<title>5</title>
<path fill="none" stroke="#56d89a" stroke-width="2" d="M65.66,-252C65.66,-252 24.91,-252 24.91,-252 18.91,-252 12.91,-246 12.91,-240 12.91,-240 12.91,-228 12.91,-228 12.91,-222 18.91,-216 24.91,-216 24.91,-216 65.66,-216 65.66,-216 71.66,-216 77.66,-222 77.66,-228 77.66,-228 77.66,-240 77.66,-240 77.66,-246 71.66,-252 65.66,-252"/>
<text text-anchor="middle" x="45.28" y="-230.88" font-family="sans" font-size="10.00">taste_test</text>
</g>
<!-- 3&#45;&gt;5 -->
<g id="edge8" class="edge">
<title>3&#45;&gt;5</title>
<path fill="none" stroke="grey" stroke-width="2" d="M45.28,-287.34C45.28,-280.75 45.28,-273.08 45.28,-265.67"/>
<polygon fill="grey" stroke="grey" stroke-width="2" points="48.78,-265.93 45.28,-255.93 41.78,-265.93 48.78,-265.93"/>
</g>
<!-- 4 -->
<g id="node5" class="node">
<title>4</title>
<path fill="none" stroke="#569ad8" stroke-width="2" d="M105.66,-396C105.66,-396 46.91,-396 46.91,-396 40.91,-396 34.91,-390 34.91,-384 34.91,-384 34.91,-372 34.91,-372 34.91,-366 40.91,-360 46.91,-360 46.91,-360 105.66,-360 105.66,-360 111.66,-360 117.66,-366 117.66,-372 117.66,-372 117.66,-384 117.66,-384 117.66,-390 111.66,-396 105.66,-396"/>
<text text-anchor="middle" x="76.28" y="-374.88" font-family="sans" font-size="10.00">want_cookies</text>
</g>
<!-- 4&#45;&gt;3 -->
<g id="edge7" class="edge">
<title>4&#45;&gt;3</title>
<path fill="none" stroke="grey" stroke-width="2" d="M68.46,-359.34C65.4,-352.43 61.81,-344.31 58.37,-336.56"/>
<polygon fill="grey" stroke="grey" stroke-width="2" points="61.69,-335.4 54.44,-327.67 55.29,-338.23 61.69,-335.4"/>
</g>
<!-- 6 -->
<g id="node7" class="node">
<title>6</title>
<path fill="none" stroke="#d6d856" stroke-width="2" d="M166.66,-252C166.66,-252 107.91,-252 107.91,-252 101.91,-252 95.91,-246 95.91,-240 95.91,-240 95.91,-228 95.91,-228 95.91,-222 101.91,-216 107.91,-216 107.91,-216 166.66,-216 166.66,-216 172.66,-216 178.66,-222 178.66,-228 178.66,-228 178.66,-240 178.66,-240 178.66,-246 172.66,-252 166.66,-252"/>
<text text-anchor="middle" x="137.28" y="-230.88" font-family="sans" font-size="10.00">preheat_oven</text>
</g>
<!-- 4&#45;&gt;6 -->
<g id="edge9" class="edge">
<title>4&#45;&gt;6</title>
<path fill="none" stroke="grey" stroke-width="2" d="M84.01,-359.02C94.23,-335.22 112.38,-292.97 124.62,-264.48"/>
<polygon fill="grey" stroke="grey" stroke-width="2" points="127.69,-266.19 128.43,-255.62 121.26,-263.43 127.69,-266.19"/>
</g>
<!-- 5&#45;&gt;2 -->
<g id="edge5" class="edge">
<title>5&#45;&gt;2</title>
<path fill="none" stroke="grey" stroke-width="2" d="M47.81,-215.34C48.75,-208.75 49.84,-201.08 50.9,-193.67"/>
<polygon fill="grey" stroke="grey" stroke-width="2" points="54.35,-194.29 52.3,-183.9 47.42,-193.3 54.35,-194.29"/>
</g>
<!-- 6&#45;&gt;1 -->
<g id="edge3" class="edge">
<title>6&#45;&gt;1</title>
<path fill="none" stroke="grey" stroke-width="2" d="M131.46,-215.02C123.78,-191.33 110.19,-149.35 100.96,-120.86"/>
<polygon fill="grey" stroke="grey" stroke-width="2" points="104.41,-120.15 97.99,-111.72 97.75,-122.31 104.41,-120.15"/>
</g>
<!-- 6&#45;&gt;2 -->
<g id="edge6" class="edge">
<title>6&#45;&gt;2</title>
<path fill="none" stroke="grey" stroke-width="2" d="M116.59,-215.34C107.34,-207.44 96.24,-197.96 86.05,-189.26"/>
<polygon fill="grey" stroke="grey" stroke-width="2" points="88.43,-186.7 78.56,-182.87 83.89,-192.02 88.43,-186.7"/>
</g>
</g>
</svg>
