<?xml version="1.0" encoding="UTF-8" standalone="no"?>
<!DOCTYPE svg PUBLIC "-//W3C//DTD SVG 1.1//EN"
 "http://www.w3.org/Graphics/SVG/1.1/DTD/svg11.dtd">
<!-- Generated by graphviz version 12.0.0 (20240803.0821)
 -->
<!-- Title: snakemake_dag Pages: 1 -->
<svg width="114pt" height="332pt"
 viewBox="0.00 0.00 113.75 332.00" xmlns="http://www.w3.org/2000/svg" xmlns:xlink="http://www.w3.org/1999/xlink">
<g id="graph0" class="graph" transform="scale(1 1) rotate(0) translate(4 328)">
<title>snakemake_dag</title>
<polygon fill="white" stroke="none" points="-4,4 -4,-328 109.75,-328 109.75,4 -4,4"/>
<!-- 0 -->
<g id="node1" class="node">
<title>0</title>
<path fill="none" stroke="#56a9d8" stroke-width="2" d="M65.75,-36C65.75,-36 35.75,-36 35.75,-36 29.75,-36 23.75,-30 23.75,-24 23.75,-24 23.75,-12 23.75,-12 23.75,-6 29.75,0 35.75,0 35.75,0 65.75,0 65.75,0 71.75,0 77.75,-6 77.75,-12 77.75,-12 77.75,-24 77.75,-24 77.75,-30 71.75,-36 65.75,-36"/>
<text text-anchor="middle" x="50.75" y="-14.88" font-family="sans" font-size="10.00">all</text>
</g>
<!-- 1 -->
<g id="node2" class="node">
<title>1</title>
<path fill="none" stroke="#56d8a9" stroke-width="2" d="M68.5,-108C68.5,-108 33,-108 33,-108 27,-108 21,-102 21,-96 21,-96 21,-84 21,-84 21,-78 27,-72 33,-72 33,-72 68.5,-72 68.5,-72 74.5,-72 80.5,-78 80.5,-84 80.5,-84 80.5,-96 80.5,-96 80.5,-102 74.5,-108 68.5,-108"/>
<text text-anchor="middle" x="50.75" y="-86.88" font-family="sans" font-size="10.00">visualize</text>
</g>
<!-- 1&#45;&gt;0 -->
<g id="edge1" class="edge">
<title>1&#45;&gt;0</title>
<path fill="none" stroke="grey" stroke-width="2" d="M50.75,-71.34C50.75,-64.75 50.75,-57.08 50.75,-49.67"/>
<polygon fill="grey" stroke="grey" stroke-width="2" points="54.25,-49.93 50.75,-39.93 47.25,-49.93 54.25,-49.93"/>
</g>
<!-- 2 -->
<g id="node3" class="node">
<title>2</title>
<path fill="none" stroke="#d8ac56" stroke-width="2" d="M89.5,-324C89.5,-324 12,-324 12,-324 6,-324 0,-318 0,-312 0,-312 0,-300 0,-300 0,-294 6,-288 12,-288 12,-288 89.5,-288 89.5,-288 95.5,-288 101.5,-294 101.5,-300 101.5,-300 101.5,-312 101.5,-312 101.5,-318 95.5,-324 89.5,-324"/>
<text text-anchor="middle" x="50.75" y="-302.88" font-family="sans" font-size="10.00">preprocess_static</text>
</g>
<!-- 3 -->
<g id="node4" class="node">
<title>3</title>
<path fill="none" stroke="#59d856" stroke-width="2" d="M68.12,-180C68.12,-180 33.38,-180 33.38,-180 27.38,-180 21.38,-174 21.38,-168 21.38,-168 21.38,-156 21.38,-156 21.38,-150 27.38,-144 33.38,-144 33.38,-144 68.12,-144 68.12,-144 74.12,-144 80.12,-150 80.12,-156 80.12,-156 80.12,-168 80.12,-168 80.12,-174 74.12,-180 68.12,-180"/>
<text text-anchor="middle" x="50.75" y="-158.88" font-family="sans" font-size="10.00">evaluate</text>
</g>
<!-- 2&#45;&gt;3 -->
<g id="edge3" class="edge">
<title>2&#45;&gt;3</title>
<path fill="none" stroke="grey" stroke-width="2" d="M47.42,-287.41C45.64,-277.13 43.64,-263.88 42.75,-252 41.55,-236.04 41.55,-231.96 42.75,-216 43.31,-208.58 44.3,-200.62 45.4,-193.18"/>
<polygon fill="grey" stroke="grey" stroke-width="2" points="48.81,-194.01 46.94,-183.58 41.9,-192.9 48.81,-194.01"/>
</g>
<!-- 4 -->
<g id="node5" class="node">
<title>4</title>
<path fill="none" stroke="#d85656" stroke-width="2" d="M93.75,-252C93.75,-252 63.75,-252 63.75,-252 57.75,-252 51.75,-246 51.75,-240 51.75,-240 51.75,-228 51.75,-228 51.75,-222 57.75,-216 63.75,-216 63.75,-216 93.75,-216 93.75,-216 99.75,-216 105.75,-222 105.75,-228 105.75,-228 105.75,-240 105.75,-240 105.75,-246 99.75,-252 93.75,-252"/>
<text text-anchor="middle" x="78.75" y="-230.88" font-family="sans" font-size="10.00">train</text>
</g>
<!-- 2&#45;&gt;4 -->
<g id="edge5" class="edge">
<title>2&#45;&gt;4</title>
<path fill="none" stroke="grey" stroke-width="2" d="M57.82,-287.34C60.55,-280.51 63.75,-272.5 66.82,-264.83"/>
<polygon fill="grey" stroke="grey" stroke-width="2" points="70,-266.3 70.47,-255.71 63.5,-263.7 70,-266.3"/>
</g>
<!-- 3&#45;&gt;1 -->
<g id="edge2" class="edge">
<title>3&#45;&gt;1</title>
<path fill="none" stroke="grey" stroke-width="2" d="M50.75,-143.34C50.75,-136.75 50.75,-129.08 50.75,-121.67"/>
<polygon fill="grey" stroke="grey" stroke-width="2" points="54.25,-121.93 50.75,-111.93 47.25,-121.93 54.25,-121.93"/>
</g>
<!-- 4&#45;&gt;3 -->
<g id="edge4" class="edge">
<title>4&#45;&gt;3</title>
<path fill="none" stroke="grey" stroke-width="2" d="M71.68,-215.34C68.95,-208.51 65.75,-200.5 62.68,-192.83"/>
<polygon fill="grey" stroke="grey" stroke-width="2" points="66,-191.7 59.03,-183.71 59.5,-194.3 66,-191.7"/>
</g>
</g>
</svg>
