<?xml version="1.0" encoding="UTF-8" standalone="no"?>
<!DOCTYPE svg PUBLIC "-//W3C//DTD SVG 1.1//EN"
 "http://www.w3.org/Graphics/SVG/1.1/DTD/svg11.dtd">
<!-- Generated by graphviz version 12.0.0 (20240803.0821)
 -->
<!-- Title: snakemake_dag Pages: 1 -->
<svg width="98pt" height="332pt"
 viewBox="0.00 0.00 97.62 332.00" xmlns="http://www.w3.org/2000/svg" xmlns:xlink="http://www.w3.org/1999/xlink">
<g id="graph0" class="graph" transform="scale(1 1) rotate(0) translate(4 328)">
<title>snakemake_dag</title>
<polygon fill="white" stroke="none" points="-4,4 -4,-328 93.62,-328 93.62,4 -4,4"/>
<!-- 0 -->
<g id="node1" class="node">
<title>0</title>
<path fill="none" stroke="#d85656" stroke-width="2" d="M49.62,-36C49.62,-36 19.62,-36 19.62,-36 13.62,-36 7.62,-30 7.62,-24 7.62,-24 7.62,-12 7.62,-12 7.62,-6 13.62,0 19.62,0 19.62,0 49.62,0 49.62,0 55.62,0 61.62,-6 61.62,-12 61.62,-12 61.62,-24 61.62,-24 61.62,-30 55.62,-36 49.62,-36"/>
<text text-anchor="middle" x="34.62" y="-14.88" font-family="sans" font-size="10.00">all</text>
</g>
<!-- 1 -->
<g id="node2" class="node">
<title>1</title>
<path fill="none" stroke="#56d87b" stroke-width="2" d="M52.38,-108C52.38,-108 16.88,-108 16.88,-108 10.88,-108 4.88,-102 4.88,-96 4.88,-96 4.88,-84 4.88,-84 4.88,-78 10.88,-72 16.88,-72 16.88,-72 52.38,-72 52.38,-72 58.38,-72 64.38,-78 64.38,-84 64.38,-84 64.38,-96 64.38,-96 64.38,-102 58.38,-108 52.38,-108"/>
<text text-anchor="middle" x="34.62" y="-86.88" font-family="sans" font-size="10.00">visualize</text>
</g>
<!-- 1&#45;&gt;0 -->
<g id="edge1" class="edge">
<title>1&#45;&gt;0</title>
<path fill="none" stroke="grey" stroke-width="2" d="M34.62,-71.34C34.62,-64.75 34.62,-57.08 34.62,-49.67"/>
<polygon fill="grey" stroke="grey" stroke-width="2" points="38.13,-49.93 34.63,-39.93 31.13,-49.93 38.13,-49.93"/>
</g>
<!-- 2 -->
<g id="node3" class="node">
<title>2</title>
<path fill="none" stroke="#d8a456" stroke-width="2" d="M57.25,-324C57.25,-324 12,-324 12,-324 6,-324 0,-318 0,-312 0,-312 0,-300 0,-300 0,-294 6,-288 12,-288 12,-288 57.25,-288 57.25,-288 63.25,-288 69.25,-294 69.25,-300 69.25,-300 69.25,-312 69.25,-312 69.25,-318 63.25,-324 57.25,-324"/>
<text text-anchor="middle" x="34.62" y="-302.88" font-family="sans" font-size="10.00">preprocess</text>
</g>
<!-- 3 -->
<g id="node4" class="node">
<title>3</title>
<path fill="none" stroke="#56d8c9" stroke-width="2" d="M52,-180C52,-180 17.25,-180 17.25,-180 11.25,-180 5.25,-174 5.25,-168 5.25,-168 5.25,-156 5.25,-156 5.25,-150 11.25,-144 17.25,-144 17.25,-144 52,-144 52,-144 58,-144 64,-150 64,-156 64,-156 64,-168 64,-168 64,-174 58,-180 52,-180"/>
<text text-anchor="middle" x="34.62" y="-158.88" font-family="sans" font-size="10.00">evaluate</text>
</g>
<!-- 2&#45;&gt;3 -->
<g id="edge4" class="edge">
<title>2&#45;&gt;3</title>
<path fill="none" stroke="grey" stroke-width="2" d="M31.29,-287.41C29.52,-277.13 27.52,-263.88 26.62,-252 25.43,-236.04 25.43,-231.96 26.62,-216 27.18,-208.58 28.17,-200.62 29.27,-193.18"/>
<polygon fill="grey" stroke="grey" stroke-width="2" points="32.68,-194.01 30.81,-183.58 25.77,-192.9 32.68,-194.01"/>
</g>
<!-- 4 -->
<g id="node5" class="node">
<title>4</title>
<path fill="none" stroke="#c6d856" stroke-width="2" d="M77.62,-252C77.62,-252 47.62,-252 47.62,-252 41.62,-252 35.62,-246 35.62,-240 35.62,-240 35.62,-228 35.62,-228 35.62,-222 41.62,-216 47.62,-216 47.62,-216 77.62,-216 77.62,-216 83.62,-216 89.62,-222 89.62,-228 89.62,-228 89.62,-240 89.62,-240 89.62,-246 83.62,-252 77.62,-252"/>
<text text-anchor="middle" x="62.62" y="-230.88" font-family="sans" font-size="10.00">train</text>
</g>
<!-- 2&#45;&gt;4 -->
<g id="edge5" class="edge">
<title>2&#45;&gt;4</title>
<path fill="none" stroke="grey" stroke-width="2" d="M41.69,-287.34C44.42,-280.51 47.62,-272.5 50.69,-264.83"/>
<polygon fill="grey" stroke="grey" stroke-width="2" points="53.88,-266.3 54.34,-255.71 47.38,-263.7 53.88,-266.3"/>
</g>
<!-- 3&#45;&gt;1 -->
<g id="edge2" class="edge">
<title>3&#45;&gt;1</title>
<path fill="none" stroke="grey" stroke-width="2" d="M34.62,-143.34C34.62,-136.75 34.62,-129.08 34.62,-121.67"/>
<polygon fill="grey" stroke="grey" stroke-width="2" points="38.13,-121.93 34.63,-111.93 31.13,-121.93 38.13,-121.93"/>
</g>
<!-- 4&#45;&gt;3 -->
<g id="edge3" class="edge">
<title>4&#45;&gt;3</title>
<path fill="none" stroke="grey" stroke-width="2" d="M55.56,-215.34C52.83,-208.51 49.63,-200.5 46.56,-192.83"/>
<polygon fill="grey" stroke="grey" stroke-width="2" points="49.87,-191.7 42.91,-183.71 43.37,-194.3 49.87,-191.7"/>
</g>
</g>
</svg>
