<?xml version="1.0" encoding="UTF-8" standalone="no"?>
<!DOCTYPE svg PUBLIC "-//W3C//DTD SVG 1.1//EN"
 "http://www.w3.org/Graphics/SVG/1.1/DTD/svg11.dtd">
<!-- Generated by graphviz version 12.0.0 (20240803.0821)
 -->
<!-- Title: snakemake_dag Pages: 1 -->
<svg width="77pt" height="260pt"
 viewBox="0.00 0.00 77.25 260.00" xmlns="http://www.w3.org/2000/svg" xmlns:xlink="http://www.w3.org/1999/xlink">
<g id="graph0" class="graph" transform="scale(1 1) rotate(0) translate(4 256)">
<title>snakemake_dag</title>
<polygon fill="white" stroke="none" points="-4,4 -4,-256 73.25,-256 73.25,4 -4,4"/>
<!-- 0 -->
<g id="node1" class="node">
<title>0</title>
<path fill="none" stroke="#59d856" stroke-width="2" d="M49.62,-36C49.62,-36 19.62,-36 19.62,-36 13.62,-36 7.62,-30 7.62,-24 7.62,-24 7.62,-12 7.62,-12 7.62,-6 13.62,0 19.62,0 19.62,0 49.62,0 49.62,0 55.62,0 61.62,-6 61.62,-12 61.62,-12 61.62,-24 61.62,-24 61.62,-30 55.62,-36 49.62,-36"/>
<text text-anchor="middle" x="34.62" y="-14.88" font-family="sans" font-size="10.00">all</text>
</g>
<!-- 1 -->
<g id="node2" class="node">
<title>1</title>
<path fill="none" stroke="#56d8d8" stroke-width="2" d="M52.38,-108C52.38,-108 16.88,-108 16.88,-108 10.88,-108 4.88,-102 4.88,-96 4.88,-96 4.88,-84 4.88,-84 4.88,-78 10.88,-72 16.88,-72 16.88,-72 52.38,-72 52.38,-72 58.38,-72 64.38,-78 64.38,-84 64.38,-84 64.38,-96 64.38,-96 64.38,-102 58.38,-108 52.38,-108"/>
<text text-anchor="middle" x="34.62" y="-86.88" font-family="sans" font-size="10.00">visualize</text>
</g>
<!-- 1&#45;&gt;0 -->
<g id="edge1" class="edge">
<title>1&#45;&gt;0</title>
<path fill="none" stroke="grey" stroke-width="2" d="M34.62,-71.34C34.62,-64.75 34.62,-57.08 34.62,-49.67"/>
<polygon fill="grey" stroke="grey" stroke-width="2" points="38.13,-49.93 34.63,-39.93 31.13,-49.93 38.13,-49.93"/>
</g>
<!-- 2 -->
<g id="node3" class="node">
<title>2</title>
<path fill="none" stroke="#d6d856" stroke-width="2" d="M49.75,-180C49.75,-180 19.5,-180 19.5,-180 13.5,-180 7.5,-174 7.5,-168 7.5,-168 7.5,-156 7.5,-156 7.5,-150 13.5,-144 19.5,-144 19.5,-144 49.75,-144 49.75,-144 55.75,-144 61.75,-150 61.75,-156 61.75,-156 61.75,-168 61.75,-168 61.75,-174 55.75,-180 49.75,-180"/>
<text text-anchor="middle" x="34.62" y="-158.88" font-family="sans" font-size="10.00">analyze</text>
</g>
<!-- 2&#45;&gt;1 -->
<g id="edge2" class="edge">
<title>2&#45;&gt;1</title>
<path fill="none" stroke="grey" stroke-width="2" d="M34.62,-143.34C34.62,-136.75 34.62,-129.08 34.62,-121.67"/>
<polygon fill="grey" stroke="grey" stroke-width="2" points="38.13,-121.93 34.63,-111.93 31.13,-121.93 38.13,-121.93"/>
</g>
<!-- 3 -->
<g id="node4" class="node">
<title>3</title>
<path fill="none" stroke="#d85656" stroke-width="2" d="M57.25,-252C57.25,-252 12,-252 12,-252 6,-252 0,-246 0,-240 0,-240 0,-228 0,-228 0,-222 6,-216 12,-216 12,-216 57.25,-216 57.25,-216 63.25,-216 69.25,-222 69.25,-228 69.25,-228 69.25,-240 69.25,-240 69.25,-246 63.25,-252 57.25,-252"/>
<text text-anchor="middle" x="34.62" y="-230.88" font-family="sans" font-size="10.00">preprocess</text>
</g>
<!-- 3&#45;&gt;2 -->
<g id="edge3" class="edge">
<title>3&#45;&gt;2</title>
<path fill="none" stroke="grey" stroke-width="2" d="M34.62,-215.34C34.62,-208.75 34.62,-201.08 34.62,-193.67"/>
<polygon fill="grey" stroke="grey" stroke-width="2" points="38.13,-193.93 34.63,-183.93 31.13,-193.93 38.13,-193.93"/>
</g>
</g>
</svg>
